<?xml version="1.0" encoding="utf-8" standalone="no"?>
<!DOCTYPE svg PUBLIC "-//W3C//DTD SVG 1.1//EN"
  "http://www.w3.org/Graphics/SVG/1.1/DTD/svg11.dtd">
<!-- Created with matplotlib (https://matplotlib.org/) -->
<svg height="345.6pt" version="1.1" viewBox="0 0 460.8 345.6" width="460.8pt" xmlns="http://www.w3.org/2000/svg" xmlns:xlink="http://www.w3.org/1999/xlink">
 <defs>
  <style type="text/css">
*{stroke-linecap:butt;stroke-linejoin:round;}
  </style>
 </defs>
 <g id="figure_1">
  <g id="patch_1">
   <path d="M 0 345.6 
L 460.8 345.6 
L 460.8 0 
L 0 0 
z
" style="fill:#ffffff;"/>
  </g>
  <g id="axes_1">
   <g id="patch_2">
    <path d="M 103.104 307.584 
L 369.216 307.584 
L 369.216 41.472 
L 103.104 41.472 
z
" style="fill:#ffffff;"/>
   </g>
   <g id="matplotlib.axis_1">
    <g id="xtick_1">
     <g id="line2d_1">
      <defs>
       <path d="M 0 0 
L 0 3.5 
" id="m943607cfd5" style="stroke:#000000;stroke-width:0.8;"/>
      </defs>
      <g>
       <use style="stroke:#000000;stroke-width:0.8;" x="103.104" xlink:href="#m943607cfd5" y="307.584"/>
      </g>
     </g>
     <g id="text_1">
      <!-- 0.0 -->
      <defs>
       <path d="M 31.78125 66.40625 
Q 24.171875 66.40625 20.328125 58.90625 
Q 16.5 51.421875 16.5 36.375 
Q 16.5 21.390625 20.328125 13.890625 
Q 24.171875 6.390625 31.78125 6.390625 
Q 39.453125 6.390625 43.28125 13.890625 
Q 47.125 21.390625 47.125 36.375 
Q 47.125 51.421875 43.28125 58.90625 
Q 39.453125 66.40625 31.78125 66.40625 
z
M 31.78125 74.21875 
Q 44.046875 74.21875 50.515625 64.515625 
Q 56.984375 54.828125 56.984375 36.375 
Q 56.984375 17.96875 50.515625 8.265625 
Q 44.046875 -1.421875 31.78125 -1.421875 
Q 19.53125 -1.421875 13.0625 8.265625 
Q 6.59375 17.96875 6.59375 36.375 
Q 6.59375 54.828125 13.0625 64.515625 
Q 19.53125 74.21875 31.78125 74.21875 
z
" id="DejaVuSans-48"/>
       <path d="M 10.6875 12.40625 
L 21 12.40625 
L 21 0 
L 10.6875 0 
z
" id="DejaVuSans-46"/>
      </defs>
      <g transform="translate(95.152438 322.182437)scale(0.1 -0.1)">
       <use xlink:href="#DejaVuSans-48"/>
       <use x="63.623047" xlink:href="#DejaVuSans-46"/>
       <use x="95.410156" xlink:href="#DejaVuSans-48"/>
      </g>
     </g>
    </g>
    <g id="xtick_2">
     <g id="line2d_2">
      <g>
       <use style="stroke:#000000;stroke-width:0.8;" x="156.3264" xlink:href="#m943607cfd5" y="307.584"/>
      </g>
     </g>
     <g id="text_2">
      <!-- 0.2 -->
      <defs>
       <path d="M 19.1875 8.296875 
L 53.609375 8.296875 
L 53.609375 0 
L 7.328125 0 
L 7.328125 8.296875 
Q 12.9375 14.109375 22.625 23.890625 
Q 32.328125 33.6875 34.8125 36.53125 
Q 39.546875 41.84375 41.421875 45.53125 
Q 43.3125 49.21875 43.3125 52.78125 
Q 43.3125 58.59375 39.234375 62.25 
Q 35.15625 65.921875 28.609375 65.921875 
Q 23.96875 65.921875 18.8125 64.3125 
Q 13.671875 62.703125 7.8125 59.421875 
L 7.8125 69.390625 
Q 13.765625 71.78125 18.9375 73 
Q 24.125 74.21875 28.421875 74.21875 
Q 39.75 74.21875 46.484375 68.546875 
Q 53.21875 62.890625 53.21875 53.421875 
Q 53.21875 48.921875 51.53125 44.890625 
Q 49.859375 40.875 45.40625 35.40625 
Q 44.1875 33.984375 37.640625 27.21875 
Q 31.109375 20.453125 19.1875 8.296875 
z
" id="DejaVuSans-50"/>
      </defs>
      <g transform="translate(148.374838 322.182437)scale(0.1 -0.1)">
       <use xlink:href="#DejaVuSans-48"/>
       <use x="63.623047" xlink:href="#DejaVuSans-46"/>
       <use x="95.410156" xlink:href="#DejaVuSans-50"/>
      </g>
     </g>
    </g>
    <g id="xtick_3">
     <g id="line2d_3">
      <g>
       <use style="stroke:#000000;stroke-width:0.8;" x="209.5488" xlink:href="#m943607cfd5" y="307.584"/>
      </g>
     </g>
     <g id="text_3">
      <!-- 0.4 -->
      <defs>
       <path d="M 37.796875 64.3125 
L 12.890625 25.390625 
L 37.796875 25.390625 
z
M 35.203125 72.90625 
L 47.609375 72.90625 
L 47.609375 25.390625 
L 58.015625 25.390625 
L 58.015625 17.1875 
L 47.609375 17.1875 
L 47.609375 0 
L 37.796875 0 
L 37.796875 17.1875 
L 4.890625 17.1875 
L 4.890625 26.703125 
z
" id="DejaVuSans-52"/>
      </defs>
      <g transform="translate(201.597238 322.182437)scale(0.1 -0.1)">
       <use xlink:href="#DejaVuSans-48"/>
       <use x="63.623047" xlink:href="#DejaVuSans-46"/>
       <use x="95.410156" xlink:href="#DejaVuSans-52"/>
      </g>
     </g>
    </g>
    <g id="xtick_4">
     <g id="line2d_4">
      <g>
       <use style="stroke:#000000;stroke-width:0.8;" x="262.7712" xlink:href="#m943607cfd5" y="307.584"/>
      </g>
     </g>
     <g id="text_4">
      <!-- 0.6 -->
      <defs>
       <path d="M 33.015625 40.375 
Q 26.375 40.375 22.484375 35.828125 
Q 18.609375 31.296875 18.609375 23.390625 
Q 18.609375 15.53125 22.484375 10.953125 
Q 26.375 6.390625 33.015625 6.390625 
Q 39.65625 6.390625 43.53125 10.953125 
Q 47.40625 15.53125 47.40625 23.390625 
Q 47.40625 31.296875 43.53125 35.828125 
Q 39.65625 40.375 33.015625 40.375 
z
M 52.59375 71.296875 
L 52.59375 62.3125 
Q 48.875 64.0625 45.09375 64.984375 
Q 41.3125 65.921875 37.59375 65.921875 
Q 27.828125 65.921875 22.671875 59.328125 
Q 17.53125 52.734375 16.796875 39.40625 
Q 19.671875 43.65625 24.015625 45.921875 
Q 28.375 48.1875 33.59375 48.1875 
Q 44.578125 48.1875 50.953125 41.515625 
Q 57.328125 34.859375 57.328125 23.390625 
Q 57.328125 12.15625 50.6875 5.359375 
Q 44.046875 -1.421875 33.015625 -1.421875 
Q 20.359375 -1.421875 13.671875 8.265625 
Q 6.984375 17.96875 6.984375 36.375 
Q 6.984375 53.65625 15.1875 63.9375 
Q 23.390625 74.21875 37.203125 74.21875 
Q 40.921875 74.21875 44.703125 73.484375 
Q 48.484375 72.75 52.59375 71.296875 
z
" id="DejaVuSans-54"/>
      </defs>
      <g transform="translate(254.819638 322.182437)scale(0.1 -0.1)">
       <use xlink:href="#DejaVuSans-48"/>
       <use x="63.623047" xlink:href="#DejaVuSans-46"/>
       <use x="95.410156" xlink:href="#DejaVuSans-54"/>
      </g>
     </g>
    </g>
    <g id="xtick_5">
     <g id="line2d_5">
      <g>
       <use style="stroke:#000000;stroke-width:0.8;" x="315.9936" xlink:href="#m943607cfd5" y="307.584"/>
      </g>
     </g>
     <g id="text_5">
      <!-- 0.8 -->
      <defs>
       <path d="M 31.78125 34.625 
Q 24.75 34.625 20.71875 30.859375 
Q 16.703125 27.09375 16.703125 20.515625 
Q 16.703125 13.921875 20.71875 10.15625 
Q 24.75 6.390625 31.78125 6.390625 
Q 38.8125 6.390625 42.859375 10.171875 
Q 46.921875 13.96875 46.921875 20.515625 
Q 46.921875 27.09375 42.890625 30.859375 
Q 38.875 34.625 31.78125 34.625 
z
M 21.921875 38.8125 
Q 15.578125 40.375 12.03125 44.71875 
Q 8.5 49.078125 8.5 55.328125 
Q 8.5 64.0625 14.71875 69.140625 
Q 20.953125 74.21875 31.78125 74.21875 
Q 42.671875 74.21875 48.875 69.140625 
Q 55.078125 64.0625 55.078125 55.328125 
Q 55.078125 49.078125 51.53125 44.71875 
Q 48 40.375 41.703125 38.8125 
Q 48.828125 37.15625 52.796875 32.3125 
Q 56.78125 27.484375 56.78125 20.515625 
Q 56.78125 9.90625 50.3125 4.234375 
Q 43.84375 -1.421875 31.78125 -1.421875 
Q 19.734375 -1.421875 13.25 4.234375 
Q 6.78125 9.90625 6.78125 20.515625 
Q 6.78125 27.484375 10.78125 32.3125 
Q 14.796875 37.15625 21.921875 38.8125 
z
M 18.3125 54.390625 
Q 18.3125 48.734375 21.84375 45.5625 
Q 25.390625 42.390625 31.78125 42.390625 
Q 38.140625 42.390625 41.71875 45.5625 
Q 45.3125 48.734375 45.3125 54.390625 
Q 45.3125 60.0625 41.71875 63.234375 
Q 38.140625 66.40625 31.78125 66.40625 
Q 25.390625 66.40625 21.84375 63.234375 
Q 18.3125 60.0625 18.3125 54.390625 
z
" id="DejaVuSans-56"/>
      </defs>
      <g transform="translate(308.042037 322.182437)scale(0.1 -0.1)">
       <use xlink:href="#DejaVuSans-48"/>
       <use x="63.623047" xlink:href="#DejaVuSans-46"/>
       <use x="95.410156" xlink:href="#DejaVuSans-56"/>
      </g>
     </g>
    </g>
    <g id="xtick_6">
     <g id="line2d_6">
      <g>
       <use style="stroke:#000000;stroke-width:0.8;" x="369.216" xlink:href="#m943607cfd5" y="307.584"/>
      </g>
     </g>
     <g id="text_6">
      <!-- 1.0 -->
      <defs>
       <path d="M 12.40625 8.296875 
L 28.515625 8.296875 
L 28.515625 63.921875 
L 10.984375 60.40625 
L 10.984375 69.390625 
L 28.421875 72.90625 
L 38.28125 72.90625 
L 38.28125 8.296875 
L 54.390625 8.296875 
L 54.390625 0 
L 12.40625 0 
z
" id="DejaVuSans-49"/>
      </defs>
      <g transform="translate(361.264437 322.182437)scale(0.1 -0.1)">
       <use xlink:href="#DejaVuSans-49"/>
       <use x="63.623047" xlink:href="#DejaVuSans-46"/>
       <use x="95.410156" xlink:href="#DejaVuSans-48"/>
      </g>
     </g>
    </g>
   </g>
   <g id="matplotlib.axis_2">
    <g id="ytick_1">
     <g id="line2d_7">
      <defs>
       <path d="M 0 0 
L -3.5 0 
" id="m8e550fa68c" style="stroke:#000000;stroke-width:0.8;"/>
      </defs>
      <g>
       <use style="stroke:#000000;stroke-width:0.8;" x="103.104" xlink:href="#m8e550fa68c" y="307.584"/>
      </g>
     </g>
     <g id="text_7">
      <!-- 0.0 -->
      <g transform="translate(80.200875 311.383219)scale(0.1 -0.1)">
       <use xlink:href="#DejaVuSans-48"/>
       <use x="63.623047" xlink:href="#DejaVuSans-46"/>
       <use x="95.410156" xlink:href="#DejaVuSans-48"/>
      </g>
     </g>
    </g>
    <g id="ytick_2">
     <g id="line2d_8">
      <g>
       <use style="stroke:#000000;stroke-width:0.8;" x="103.104" xlink:href="#m8e550fa68c" y="254.3616"/>
      </g>
     </g>
     <g id="text_8">
      <!-- 0.2 -->
      <g transform="translate(80.200875 258.160819)scale(0.1 -0.1)">
       <use xlink:href="#DejaVuSans-48"/>
       <use x="63.623047" xlink:href="#DejaVuSans-46"/>
       <use x="95.410156" xlink:href="#DejaVuSans-50"/>
      </g>
     </g>
    </g>
    <g id="ytick_3">
     <g id="line2d_9">
      <g>
       <use style="stroke:#000000;stroke-width:0.8;" x="103.104" xlink:href="#m8e550fa68c" y="201.1392"/>
      </g>
     </g>
     <g id="text_9">
      <!-- 0.4 -->
      <g transform="translate(80.200875 204.938419)scale(0.1 -0.1)">
       <use xlink:href="#DejaVuSans-48"/>
       <use x="63.623047" xlink:href="#DejaVuSans-46"/>
       <use x="95.410156" xlink:href="#DejaVuSans-52"/>
      </g>
     </g>
    </g>
    <g id="ytick_4">
     <g id="line2d_10">
      <g>
       <use style="stroke:#000000;stroke-width:0.8;" x="103.104" xlink:href="#m8e550fa68c" y="147.9168"/>
      </g>
     </g>
     <g id="text_10">
      <!-- 0.6 -->
      <g transform="translate(80.200875 151.716019)scale(0.1 -0.1)">
       <use xlink:href="#DejaVuSans-48"/>
       <use x="63.623047" xlink:href="#DejaVuSans-46"/>
       <use x="95.410156" xlink:href="#DejaVuSans-54"/>
      </g>
     </g>
    </g>
    <g id="ytick_5">
     <g id="line2d_11">
      <g>
       <use style="stroke:#000000;stroke-width:0.8;" x="103.104" xlink:href="#m8e550fa68c" y="94.6944"/>
      </g>
     </g>
     <g id="text_11">
      <!-- 0.8 -->
      <g transform="translate(80.200875 98.493619)scale(0.1 -0.1)">
       <use xlink:href="#DejaVuSans-48"/>
       <use x="63.623047" xlink:href="#DejaVuSans-46"/>
       <use x="95.410156" xlink:href="#DejaVuSans-56"/>
      </g>
     </g>
    </g>
    <g id="ytick_6">
     <g id="line2d_12">
      <g>
       <use style="stroke:#000000;stroke-width:0.8;" x="103.104" xlink:href="#m8e550fa68c" y="41.472"/>
      </g>
     </g>
     <g id="text_12">
      <!-- 1.0 -->
      <g transform="translate(80.200875 45.271219)scale(0.1 -0.1)">
       <use xlink:href="#DejaVuSans-49"/>
       <use x="63.623047" xlink:href="#DejaVuSans-46"/>
       <use x="95.410156" xlink:href="#DejaVuSans-48"/>
      </g>
     </g>
    </g>
   </g>
   <g id="LineCollection_1"/>
   <g id="LineCollection_2">
    <path clip-path="url(#p89bad3314f)" d="M 202.256962 299.812507 
L 193.58208 300.364926 
L 188.25984 300.617959 
L 182.9376 300.653006 
L 177.61536 300.593466 
L 172.29312 300.120547 
L 166.97088 299.535742 
L 164.812494 299.097906 
L 156.177953 296.93952 
L 151.453046 291.168394 
L 149.266944 286.29504 
L 152.326733 279.650227 
L 154.573199 275.65056 
L 156.3264 274.046509 
L 166.97088 265.851504 
L 168.315264 265.00608 
L 177.61536 261.104243 
L 183.628738 258.992702 
L 188.25984 257.62482 
L 198.90432 254.992695 
L 204.440785 254.147375 
L 210.467897 253.442503 
L 221.858003 252.696877 
L 232.768207 252.431153 
L 243.307609 252.536231 
L 253.519805 252.968515 
L 263.410772 253.722028 
L 268.801266 254.3616 
L 273.41568 255.153618 
L 281.142155 257.279605 
L 284.06016 257.799462 
L 289.3824 259.82614 
L 294.70464 261.280599 
L 297.178718 262.532002 
L 303.568946 265.00608 
L 304.591626 265.763574 
L 305.34912 266.12687 
L 310.67136 270.869086 
L 315.9936 274.280115 
L 316.655987 274.988173 
L 317.492793 275.65056 
L 319.985592 282.303048 
L 322.753039 286.29504 
L 315.74056 296.93952 
L 305.34912 299.459398 
L 300.02688 299.966556 
L 294.70464 300.548552 
L 289.3824 300.520385 
L 284.06016 300.58796 
L 278.73792 300.263305 
L 273.41568 300.022725 
L 265.597642 299.435318 
L 250.57733 298.48891 
L 240.257675 298.164085 
L 229.552956 298.224324 
L 223.245298 298.458398 
L 223.245298 298.458398 
" style="fill:none;stroke:#000000;stroke-width:0.4;"/>
   </g>
   <g id="LineCollection_3">
    <path clip-path="url(#p89bad3314f)" d="M 103.104 275.65056 
L 103.104 275.65056 
L 103.104 275.65056 
L 106.970156 270.32832 
L 108.42624 268.32384 
L 110.836784 265.00608 
L 113.74848 260.874878 
L 114.745572 259.68384 
L 119.07072 254.516974 
L 119.200798 254.3616 
L 120.175177 253.257143 
L 123.896209 249.03936 
L 124.39296 248.476244 
L 129.457493 243.71712 
L 129.7152 243.492416 
L 131.469142 241.963178 
L 135.03744 238.852028 
L 135.679522 238.39488 
L 140.35968 235.062496 
L 143.154341 233.07264 
L 145.68192 231.40007 
L 149.265895 229.488665 
L 151.00416 228.559799 
L 152.518774 227.7504 
L 156.3264 225.715573 
L 159.888689 224.188111 
L 161.64864 223.433467 
L 163.992929 222.42816 
L 166.97088 221.23423 
L 168.717423 220.681617 
L 172.29312 219.552307 
L 176.496934 218.224346 
L 177.61536 217.871041 
L 180.719925 217.10592 
L 182.9376 216.559383 
L 183.662939 216.380581 
L 188.25984 215.263727 
L 190.522293 214.843467 
L 193.58208 214.275099 
L 197.059015 213.628985 
L 198.90432 213.295997 
L 203.296267 212.713973 
L 204.22656 212.59069 
L 209.432055 211.900425 
L 209.5488 211.885626 
L 210.74837 211.78368 
L 214.87104 211.457682 
L 215.22506 211.42966 
L 220.19328 211.036405 
L 220.971283 211.005677 
L 225.51552 210.831718 
L 226.505454 210.793746 
L 230.83776 210.627565 
L 231.99356 210.62788 
L 236.16 210.629569 
L 237.313725 210.629955 
L 241.48224 210.631351 
L 242.590182 210.675738 
L 246.80448 210.84015 
L 247.712634 210.875526 
L 252.12672 211.047473 
L 252.80746 211.10294 
L 257.44896 211.47242 
L 257.737281 211.495359 
L 261.361251 211.78368 
L 262.6594 211.89548 
L 262.7712 211.904484 
L 267.358112 212.519008 
L 268.09344 212.617523 
L 268.307414 212.646184 
" style="fill:none;stroke:#000000;stroke-width:0.4;"/>
    <path clip-path="url(#p89bad3314f)" d="M 289.110038 216.542931 
L 289.3824 216.610412 
L 289.779512 216.708808 
L 291.420586 217.10592 
L 294.064679 217.745881 
L 294.70464 217.900773 
L 298.143071 218.989729 
L 300.02688 219.584194 
L 302.188594 220.266446 
L 305.34912 221.263928 
L 306.183381 221.593899 
L 308.254765 222.42816 
L 309.943405 223.156115 
L 310.67136 223.469929 
L 313.662269 224.759491 
L 315.9936 225.744985 
L 317.302781 226.441219 
L 319.764533 227.7504 
L 320.777178 228.289062 
L 321.31584 228.577267 
L 324.244115 230.144365 
L 326.63808 231.425522 
L 327.637407 232.073313 
L 329.129041 233.07264 
L 330.780388 234.252572 
L 331.96032 235.095666 
L 333.884401 236.470799 
L 336.606294 238.39488 
L 337.002454 238.674986 
L 337.28256 238.873034 
L 339.883728 241.115952 
L 342.6048 243.508467 
L 342.715814 243.606106 
L 342.842037 243.71712 
L 345.439441 246.204719 
L 347.92704 248.491236 
L 348.183643 248.782757 
L 348.409509 249.03936 
L 350.674981 251.613659 
L 353.108592 254.3616 
L 353.170799 254.440081 
L 353.24928 254.539092 
L 355.52363 257.40949 
L 357.519693 259.68384 
L 358.011298 260.244062 
L 358.57152 260.882481 
L 360.254557 263.323043 
L 361.478392 265.00608 
L 362.420814 266.479026 
L 363.89376 268.781151 
L 364.497249 269.724831 
L 364.977817 270.32832 
L 366.856625 272.687695 
L 369.216 275.65056 
L 369.216 275.65056 
L 369.216 275.65056 
" style="fill:none;stroke:#000000;stroke-width:0.4;"/>
   </g>
   <g id="LineCollection_4">
    <path clip-path="url(#p89bad3314f)" d="M 103.104 233.07264 
L 103.104 233.07264 
L 103.104 233.07264 
L 107.395901 227.7504 
L 108.42624 226.472711 
L 111.688006 222.42816 
L 113.74848 220.095132 
L 117.005301 217.10592 
L 119.07072 215.210187 
L 122.804112 211.78368 
L 124.39296 210.433782 
L 128.646296 207.530344 
L 129.7152 206.784204 
L 130.177601 206.46144 
L 135.03744 203.069136 
L 138.49712 201.1392 
L 140.35968 200.154057 
L 142.450877 199.048003 
L 145.68192 197.339074 
L 149.326197 195.81696 
L 151.00416 195.116117 
L 152.207681 194.613439 
L 156.3264 192.826047 
L 160.857147 191.286213 
L 161.64864 191.017214 
L 163.185965 190.49472 
L 166.97088 189.25556 
L 168.625961 188.839639 
L 172.29312 187.872615 
L 175.854392 186.933448 
L 177.61536 186.469052 
L 182.639297 185.470783 
L 182.9376 185.408801 
L 184.074818 185.17248 
L 188.25984 184.302829 
L 189.285381 184.146939 
L 193.58208 183.49381 
L 195.561713 183.192847 
L 198.90432 182.663636 
L 201.723076 182.353724 
L 204.22656 182.078475 
L 207.702864 181.696176 
L 209.5488 181.485657 
L 213.518847 181.202433 
L 214.87104 181.105967 
L 219.250079 180.793441 
L 220.19328 180.723889 
L 224.803441 180.562319 
L 225.51552 180.537363 
L 230.319125 180.368875 
L 230.83776 180.350135 
L 235.659776 180.350464 
L 236.16 180.350498 
L 240.981783 180.350697 
L 241.48224 180.350754 
L 246.140325 180.514395 
L 246.80448 180.537728 
L 251.282036 180.694924 
L 252.12672 180.725658 
L 256.277794 181.021406 
L 257.44896 181.104848 
L 261.246127 181.375313 
L 262.7712 181.488318 
L 266.091813 181.851867 
L 268.09344 182.071011 
L 270.88889 182.37703 
L 273.41568 182.666781 
L 275.592918 182.995242 
L 278.053899 183.36651 
" style="fill:none;stroke:#000000;stroke-width:0.4;"/>
    <path clip-path="url(#p89bad3314f)" d="M 298.832975 187.510336 
L 300.02688 187.830325 
L 302.128083 188.393517 
L 305.34912 189.256862 
L 306.298455 189.545385 
L 309.132032 190.49472 
L 310.28664 190.87944 
L 310.67136 191.007629 
L 314.278646 192.209674 
L 315.9936 192.825653 
L 318.121375 193.689185 
L 321.31584 194.985621 
L 321.907175 195.225625 
L 323.232497 195.81696 
L 325.587304 196.867736 
L 326.63808 197.33662 
L 329.190867 198.586413 
L 331.96032 200.110411 
L 332.623906 200.475614 
L 333.829664 201.1392 
L 336.073324 202.348436 
L 337.28256 203.06465 
L 339.341914 204.402086 
L 342.51286 206.46144 
L 342.568597 206.497643 
L 342.6048 206.524193 
L 345.638853 208.749627 
L 347.92704 210.427979 
L 348.687783 211.022937 
L 349.522387 211.78368 
L 351.523355 213.509605 
L 353.24928 214.998294 
L 354.380792 215.974408 
L 355.533057 217.10592 
L 357.066047 218.611393 
L 358.57152 220.089843 
L 359.714289 221.285391 
L 360.635569 222.42816 
L 362.153168 224.168752 
L 363.89376 226.165102 
L 364.632089 227.012071 
L 365.190524 227.7504 
L 366.924044 230.042356 
L 369.216 233.07264 
L 369.216 233.07264 
L 369.216 233.07264 
" style="fill:none;stroke:#000000;stroke-width:0.4;"/>
   </g>
   <g id="LineCollection_5">
    <path clip-path="url(#p89bad3314f)" d="M 103.104 190.49472 
L 103.104 190.49472 
L 108.42624 185.99254 
L 109.395719 185.17248 
L 113.74848 181.490569 
L 116.167929 179.85024 
L 119.07072 178.025838 
L 123.981209 174.939751 
L 124.39296 174.680978 
L 124.700253 174.528 
L 129.7152 172.03142 
L 134.686515 169.556685 
L 135.03744 169.371745 
L 135.438003 169.20576 
L 140.35968 167.253099 
L 143.596477 165.968963 
L 145.68192 165.141604 
L 149.781312 163.88352 
L 151.00416 163.508235 
L 151.545604 163.342076 
L 156.3264 161.754568 
L 159.179729 161.030191 
L 161.64864 160.403407 
L 166.312817 159.219343 
L 166.97088 159.038417 
L 169.276319 158.56128 
L 172.29312 157.948239 
L 173.062506 157.791894 
L 177.61536 156.866722 
L 179.603524 156.573116 
L 182.9376 156.030634 
L 185.960031 155.538849 
L 188.25984 155.164644 
L 192.094169 154.726951 
L 193.58208 154.539812 
L 198.182148 153.961212 
L 198.90432 153.870377 
L 204.021245 153.444355 
L 204.22656 153.425518 
L 205.005016 153.354088 
" style="fill:none;stroke:#000000;stroke-width:0.4;"/>
    <path clip-path="url(#p89bad3314f)" d="M 225.997227 152.176236 
L 226.594372 152.160188 
L 230.83776 152.034377 
L 232.042525 152.034275 
L 236.16 152.033925 
L 237.365231 152.033809 
L 241.48224 152.033562 
L 242.656463 152.064817 
L 246.80448 152.175228 
L 247.840722 152.202798 
L 252.12672 152.329715 
L 252.989555 152.376205 
L 257.44896 152.616483 
L 258.039694 152.648306 
L 262.7712 152.933069 
L 263.0539 152.95634 
L 266.488235 153.23904 
L 267.971351 153.361129 
L 268.09344 153.372421 
L 272.843047 153.811673 
L 273.41568 153.864631 
L 277.637405 154.339555 
L 278.73792 154.47967 
L 282.358579 154.940621 
L 284.06016 155.157251 
L 287.033285 155.588155 
L 289.3824 155.97692 
L 291.5998 156.34388 
L 294.70464 156.857702 
L 296.148214 157.117706 
L 300.02688 157.923926 
L 300.554552 158.033608 
L 303.093159 158.56128 
L 304.969426 158.940974 
L 305.34912 159.027896 
L 309.244165 159.988475 
L 310.67136 160.340443 
L 313.513515 161.041365 
L 315.9936 161.742718 
L 317.645808 162.231312 
L 321.31584 163.316623 
L 321.753354 163.446006 
L 323.023404 163.88352 
L 325.711895 164.809705 
L 326.63808 165.128775 
L 329.656661 166.187179 
L 331.96032 167.145404 
L 333.415405 167.750675 
L 336.913462 169.20576 
L 337.177916 169.310404 
L 337.28256 169.358708 
L 340.80134 171.00922 
L 342.6048 171.855148 
L 344.424219 172.708581 
L 347.675204 174.528 
L 347.836671 174.618369 
L 347.92704 174.668945 
L 351.26 176.51728 
L 353.24928 177.86872 
L 354.429185 178.670335 
L 356.165896 179.85024 
L 357.643428 180.778332 
L 358.57152 181.482113 
L 360.679865 183.064135 
L 363.489635 185.17248 
L 363.720513 185.345727 
L 363.89376 185.50804 
L 366.468259 187.920221 
L 369.216 190.49472 
L 369.216 190.49472 
L 369.216 190.49472 
" style="fill:none;stroke:#000000;stroke-width:0.4;"/>
   </g>
   <g id="LineCollection_6">
    <path clip-path="url(#p89bad3314f)" d="M 103.104 147.9168 
L 103.104 147.9168 
L 108.42624 145.354695 
L 113.366269 142.976771 
L 113.74848 142.792791 
L 114.277093 142.59456 
L 119.07072 140.796949 
L 121.946731 139.718549 
L 124.39296 138.696436 
L 128.79945 137.27232 
L 129.7152 136.989656 
L 130.124053 136.863467 
L 135.03744 135.346997 
L 137.549509 134.760251 
L 140.35968 134.008295 
L 144.816051 132.815949 
L 145.68192 132.584277 
L 148.853266 131.95008 
L 151.00416 131.519955 
L 151.541785 131.412455 
L 156.3264 130.315983 
L 158.291926 129.984554 
L 161.64864 129.418542 
L 164.693565 128.905155 
L 166.97088 128.46472 
L 171.021152 127.899808 
L 172.29312 127.722401 
L 177.205958 127.037242 
L 177.61536 126.971667 
L 180.673208 126.62784 
L 182.9376 126.373728 
L 183.223831 126.341609 
L 188.25984 125.776501 
L 189.179008 125.708672 
L 193.58208 125.323206 
L 195.011882 125.198038 
L 198.90432 124.857288 
L 200.776024 124.756136 
L 204.22656 124.534214 
L 206.464095 124.390305 
L 207.130845 124.347422 
" style="fill:none;stroke:#000000;stroke-width:0.4;"/>
    <path clip-path="url(#p89bad3314f)" d="M 228.135849 123.602557 
L 228.549497 123.593863 
L 230.83776 123.545769 
L 233.920356 123.545244 
L 236.16 123.544913 
L 239.243409 123.544431 
L 241.48224 123.54408 
L 244.513951 123.596129 
L 246.80448 123.643759 
L 249.727802 123.704518 
L 252.12672 123.754377 
L 254.903454 123.851106 
L 257.44896 123.958741 
L 260.009805 124.066995 
L 262.7712 124.183728 
L 265.091903 124.307137 
L 268.09344 124.501543 
L 270.090418 124.630862 
L 273.41568 124.846198 
L 275.076932 124.966588 
L 278.73792 125.291124 
L 279.965802 125.399958 
L 284.06016 125.762865 
L 284.851618 125.836382 
L 289.3824 126.354001 
L 289.628165 126.382075 
L 291.779583 126.62784 
L 294.414463 126.918017 
L 294.70464 126.956226 
L 299.100554 127.554166 
L 300.02688 127.680167 
L 303.78557 128.19139 
L 305.34912 128.447825 
L 308.359029 128.940171 
L 310.67136 129.318411 
L 312.933091 129.688349 
L 315.9936 130.298315 
L 317.378431 130.565249 
L 321.31584 131.324208 
L 321.840573 131.425347 
L 324.046262 131.95008 
L 326.139978 132.448182 
L 326.63808 132.566682 
L 330.484407 133.425993 
L 331.96032 133.839501 
L 334.641875 134.590765 
L 337.28256 135.33058 
L 338.829427 135.725453 
L 342.6048 136.958228 
L 342.841579 137.035541 
L 343.566746 137.27232 
L 346.90696 138.2924 
L 347.92704 138.682859 
L 350.825022 139.696578 
L 353.24928 140.544589 
L 354.768019 141.075821 
L 358.149439 142.59456 
L 358.440701 142.725379 
L 358.57152 142.784136 
L 362.242929 144.245391 
L 363.89376 145.114598 
L 365.729454 146.081106 
L 369.216 147.9168 
L 369.216 147.9168 
L 369.216 147.9168 
" style="fill:none;stroke:#000000;stroke-width:0.4;"/>
   </g>
   <g id="LineCollection_7">
    <path clip-path="url(#p89bad3314f)" d="M 103.104 105.33888 
L 108.42624 104.354278 
L 109.634253 104.130867 
L 113.74848 103.369978 
L 116.022997 103.064363 
L 119.07072 102.520804 
L 122.500295 101.909305 
L 124.39296 101.571839 
L 128.715217 101.016623 
L 129.7152 100.85042 
L 134.732951 100.01664 
L 135.03744 99.966045 
L 135.094796 99.959284 
L 140.35968 99.338677 
L 141.128207 99.248113 
L 145.68192 98.562692 
L 147.305711 98.392849 
L 151.00416 98.006005 
L 153.249593 97.771207 
L 156.3264 97.362305 
L 159.243395 97.099645 
L 161.64864 96.883066 
L 165.092208 96.573072 
L 166.97088 96.358053 
L 170.927087 96.060433 
L 172.29312 95.957669 
L 176.682199 95.627561 
L 177.61536 95.537972 
L 182.383988 95.248012 
L 182.9376 95.214349 
L 188.050741 94.903499 
L 188.25984 94.887169 
L 192.348806 94.6944 
L 193.58208 94.63526 
L 193.644198 94.632282 
L 198.90432 94.38007 
L 199.22668 94.37204 
L 204.22656 94.196498 
L 204.742579 94.178381 
L 209.5488 94.009639 
L 209.688008 94.007392 
" style="fill:none;stroke:#000000;stroke-width:0.4;"/>
    <path clip-path="url(#p89bad3314f)" d="M 230.699688 93.652139 
L 230.83776 93.650553 
L 231.881838 93.650322 
L 236.16 93.649393 
L 237.205248 93.649152 
L 241.48224 93.648166 
L 242.520637 93.656003 
L 246.80448 93.703494 
L 247.784536 93.714344 
L 252.12672 93.762412 
L 253.044365 93.776755 
L 257.44896 93.877064 
L 258.248111 93.895249 
L 262.7712 93.998176 
L 263.450906 94.014694 
L 268.09344 94.1778 
L 268.592516 94.195324 
L 273.41568 94.364683 
L 273.734639 94.375441 
L 278.73792 94.617362 
L 278.811407 94.620913 
L 280.331836 94.6944 
L 283.895604 94.858956 
L 284.06016 94.869099 
L 288.918594 95.158206 
L 289.3824 95.185805 
L 293.941996 95.457044 
L 294.70464 95.517576 
L 298.895829 95.825451 
L 300.02688 95.908536 
L 303.853928 96.189592 
L 305.34912 96.336305 
L 308.732831 96.632929 
L 310.67136 96.802864 
L 313.626164 97.061836 
L 315.9936 97.340326 
L 318.423412 97.586828 
L 321.31584 97.880261 
L 323.255479 98.077001 
L 326.63808 98.54175 
L 327.962266 98.692454 
L 331.96032 99.147471 
L 332.74069 99.23627 
L 337.28256 99.947567 
L 337.344049 99.955151 
L 337.842599 100.01664 
L 342.081942 100.539498 
L 342.6048 100.630564 
L 346.614781 101.328899 
L 347.92704 101.557428 
L 351.278988 101.986932 
L 353.24928 102.358367 
L 355.757092 102.831068 
L 358.57152 103.361564 
L 360.328014 103.582386 
L 363.89376 104.287138 
L 364.771959 104.460681 
L 369.216 105.33888 
L 369.216 105.33888 
L 369.216 105.33888 
" style="fill:none;stroke:#000000;stroke-width:0.4;"/>
   </g>
   <g id="LineCollection_8">
    <path clip-path="url(#p89bad3314f)" d="M 103.104 62.76096 
L 103.104 62.76096 
L 103.104 62.76096 
L 108.416316 62.770884 
L 108.42624 62.770902 
L 113.728169 62.781271 
L 113.74848 62.780635 
L 114.658512 62.76096 
L 119.07072 62.666225 
L 119.167527 62.664153 
L 124.39296 62.552279 
L 124.605113 62.548807 
L 129.7152 62.379488 
L 130.109725 62.366435 
L 135.03744 62.203395 
L 135.607192 62.191208 
L 140.35968 62.016731 
L 141.132242 61.988398 
L 145.68192 61.821542 
L 146.641473 61.801407 
L 151.00416 61.648396 
L 152.157126 61.607994 
L 156.3264 61.461893 
L 157.648736 61.438624 
L 161.64864 61.316783 
L 163.138155 61.271445 
L 166.97088 61.154783 
L 168.598265 61.133575 
L 172.29312 61.042826 
L 174.05449 60.99959 
L 177.61536 60.912184 
L 179.480028 60.896292 
L 182.9376 60.83217 
L 184.902823 60.795737 
L 188.25984 60.733502 
L 190.297102 60.723698 
L 193.58208 60.680544 
L 195.690194 60.652846 
L 198.90432 60.610617 
L 201.059469 60.605811 
L 201.272784 60.60396 
" style="fill:none;stroke:#000000;stroke-width:0.4;"/>
    <path clip-path="url(#p89bad3314f)" d="M 222.286095 60.486153 
L 222.468124 60.486116 
L 225.51552 60.47853 
L 227.803697 60.472783 
L 230.83776 60.465163 
L 233.13383 60.46489 
L 236.16 60.464267 
L 238.457227 60.463733 
L 241.48224 60.46303 
L 243.780231 60.462969 
L 246.80448 60.469294 
L 249.09143 60.47401 
L 252.12672 60.480269 
L 254.406156 60.481524 
L 257.44896 60.496249 
L 259.702832 60.507088 
L 262.7712 60.521843 
L 265.005823 60.526337 
L 268.09344 60.552268 
L 270.283804 60.570596 
L 273.41568 60.596804 
L 275.569942 60.606698 
L 278.73792 60.647798 
L 280.824077 60.674803 
L 284.06016 60.716694 
L 286.087616 60.733504 
L 289.3824 60.794578 
L 291.313046 60.830314 
L 294.70464 60.893094 
L 296.548941 60.916659 
L 300.02688 61.002717 
L 301.742706 61.045134 
L 305.34912 61.134288 
L 306.948099 61.161981 
L 310.67136 61.276894 
L 312.11102 61.3213 
L 315.9936 61.441056 
L 317.286732 61.467828 
L 321.31584 61.611681 
L 322.425517 61.651283 
L 326.63808 61.801623 
L 327.577532 61.821508 
L 331.96032 61.98608 
L 332.707164 62.014116 
L 337.28256 62.185871 
L 337.848415 62.195105 
L 342.6048 62.357334 
L 342.995115 62.370645 
L 347.92704 62.538835 
L 348.148493 62.539507 
L 353.24928 62.653929 
L 353.353963 62.656277 
L 358.020419 62.76096 
L 358.559909 62.772571 
L 358.57152 62.773175 
L 363.887663 62.767057 
L 363.89376 62.76705 
L 369.216 62.76096 
L 369.216 62.76096 
" style="fill:none;stroke:#000000;stroke-width:0.4;"/>
   </g>
   <g id="LineCollection_9"/>
   <g id="patch_3">
    <path d="M 103.104 307.584 
L 103.104 41.472 
" style="fill:none;stroke:#000000;stroke-linecap:square;stroke-linejoin:miter;stroke-width:0.8;"/>
   </g>
   <g id="patch_4">
    <path d="M 369.216 307.584 
L 369.216 41.472 
" style="fill:none;stroke:#000000;stroke-linecap:square;stroke-linejoin:miter;stroke-width:0.8;"/>
   </g>
   <g id="patch_5">
    <path d="M 103.104 307.584 
L 369.216 307.584 
" style="fill:none;stroke:#000000;stroke-linecap:square;stroke-linejoin:miter;stroke-width:0.8;"/>
   </g>
   <g id="patch_6">
    <path d="M 103.104 41.472 
L 369.216 41.472 
" style="fill:none;stroke:#000000;stroke-linecap:square;stroke-linejoin:miter;stroke-width:0.8;"/>
   </g>
   <g id="text_13">
    <g clip-path="url(#p89bad3314f)">
     <!-- 0.080 -->
     <g transform="translate(202.839796 301.499627)rotate(-2.909879)scale(0.07 -0.07)">
      <use xlink:href="#DejaVuSans-48"/>
      <use x="63.623047" xlink:href="#DejaVuSans-46"/>
      <use x="95.410156" xlink:href="#DejaVuSans-48"/>
      <use x="159.033203" xlink:href="#DejaVuSans-56"/>
      <use x="222.65625" xlink:href="#DejaVuSans-48"/>
     </g>
    </g>
   </g>
   <g id="text_14">
    <g clip-path="url(#p89bad3314f)">
     <!-- 0.160 -->
     <g transform="translate(268.547684 214.853442)rotate(-352.09968)scale(0.07 -0.07)">
      <use xlink:href="#DejaVuSans-48"/>
      <use x="63.623047" xlink:href="#DejaVuSans-46"/>
      <use x="95.410156" xlink:href="#DejaVuSans-49"/>
      <use x="159.033203" xlink:href="#DejaVuSans-54"/>
      <use x="222.65625" xlink:href="#DejaVuSans-48"/>
     </g>
    </g>
   </g>
   <g id="text_15">
    <g clip-path="url(#p89bad3314f)">
     <!-- 0.240 -->
     <g transform="translate(278.278471 185.619553)rotate(-351.599777)scale(0.07 -0.07)">
      <use xlink:href="#DejaVuSans-48"/>
      <use x="63.623047" xlink:href="#DejaVuSans-46"/>
      <use x="95.410156" xlink:href="#DejaVuSans-50"/>
      <use x="159.033203" xlink:href="#DejaVuSans-52"/>
      <use x="222.65625" xlink:href="#DejaVuSans-48"/>
     </g>
    </g>
   </g>
   <g id="text_16">
    <g clip-path="url(#p89bad3314f)">
     <!-- 0.320 -->
     <defs>
      <path d="M 40.578125 39.3125 
Q 47.65625 37.796875 51.625 33 
Q 55.609375 28.21875 55.609375 21.1875 
Q 55.609375 10.40625 48.1875 4.484375 
Q 40.765625 -1.421875 27.09375 -1.421875 
Q 22.515625 -1.421875 17.65625 -0.515625 
Q 12.796875 0.390625 7.625 2.203125 
L 7.625 11.71875 
Q 11.71875 9.328125 16.59375 8.109375 
Q 21.484375 6.890625 26.8125 6.890625 
Q 36.078125 6.890625 40.9375 10.546875 
Q 45.796875 14.203125 45.796875 21.1875 
Q 45.796875 27.640625 41.28125 31.265625 
Q 36.765625 34.90625 28.71875 34.90625 
L 20.21875 34.90625 
L 20.21875 43.015625 
L 29.109375 43.015625 
Q 36.375 43.015625 40.234375 45.921875 
Q 44.09375 48.828125 44.09375 54.296875 
Q 44.09375 59.90625 40.109375 62.90625 
Q 36.140625 65.921875 28.71875 65.921875 
Q 24.65625 65.921875 20.015625 65.03125 
Q 15.375 64.15625 9.8125 62.3125 
L 9.8125 71.09375 
Q 15.4375 72.65625 20.34375 73.4375 
Q 25.25 74.21875 29.59375 74.21875 
Q 40.828125 74.21875 47.359375 69.109375 
Q 53.90625 64.015625 53.90625 55.328125 
Q 53.90625 49.265625 50.4375 45.09375 
Q 46.96875 40.921875 40.578125 39.3125 
z
" id="DejaVuSans-51"/>
     </defs>
     <g transform="translate(205.563999 154.954198)rotate(-2.34787)scale(0.07 -0.07)">
      <use xlink:href="#DejaVuSans-48"/>
      <use x="63.623047" xlink:href="#DejaVuSans-46"/>
      <use x="95.410156" xlink:href="#DejaVuSans-51"/>
      <use x="159.033203" xlink:href="#DejaVuSans-50"/>
      <use x="222.65625" xlink:href="#DejaVuSans-48"/>
     </g>
    </g>
   </g>
   <g id="text_17">
    <g clip-path="url(#p89bad3314f)">
     <!-- 0.400 -->
     <g transform="translate(207.662656 126.048519)rotate(-1.429069)scale(0.07 -0.07)">
      <use xlink:href="#DejaVuSans-48"/>
      <use x="63.623047" xlink:href="#DejaVuSans-46"/>
      <use x="95.410156" xlink:href="#DejaVuSans-52"/>
      <use x="159.033203" xlink:href="#DejaVuSans-48"/>
      <use x="222.65625" xlink:href="#DejaVuSans-48"/>
     </g>
    </g>
   </g>
   <g id="text_18">
    <g clip-path="url(#p89bad3314f)">
     <!-- 0.480 -->
     <g transform="translate(210.198762 95.828075)rotate(-0.727316)scale(0.07 -0.07)">
      <use xlink:href="#DejaVuSans-48"/>
      <use x="63.623047" xlink:href="#DejaVuSans-46"/>
      <use x="95.410156" xlink:href="#DejaVuSans-52"/>
      <use x="159.033203" xlink:href="#DejaVuSans-56"/>
      <use x="222.65625" xlink:href="#DejaVuSans-48"/>
     </g>
    </g>
   </g>
   <g id="text_19">
    <g clip-path="url(#p89bad3314f)">
     <!-- 0.560 -->
     <defs>
      <path d="M 10.796875 72.90625 
L 49.515625 72.90625 
L 49.515625 64.59375 
L 19.828125 64.59375 
L 19.828125 46.734375 
Q 21.96875 47.46875 24.109375 47.828125 
Q 26.265625 48.1875 28.421875 48.1875 
Q 40.625 48.1875 47.75 41.5 
Q 54.890625 34.8125 54.890625 23.390625 
Q 54.890625 11.625 47.5625 5.09375 
Q 40.234375 -1.421875 26.90625 -1.421875 
Q 22.3125 -1.421875 17.546875 -0.640625 
Q 12.796875 0.140625 7.71875 1.703125 
L 7.71875 11.625 
Q 12.109375 9.234375 16.796875 8.0625 
Q 21.484375 6.890625 26.703125 6.890625 
Q 35.15625 6.890625 40.078125 11.328125 
Q 45.015625 15.765625 45.015625 23.390625 
Q 45.015625 31 40.078125 35.4375 
Q 35.15625 39.890625 26.703125 39.890625 
Q 22.75 39.890625 18.8125 39.015625 
Q 14.890625 38.140625 10.796875 36.28125 
z
" id="DejaVuSans-53"/>
     </defs>
     <g transform="translate(201.768007 62.505352)rotate(-0.248353)scale(0.07 -0.07)">
      <use xlink:href="#DejaVuSans-48"/>
      <use x="63.623047" xlink:href="#DejaVuSans-46"/>
      <use x="95.410156" xlink:href="#DejaVuSans-53"/>
      <use x="159.033203" xlink:href="#DejaVuSans-54"/>
      <use x="222.65625" xlink:href="#DejaVuSans-48"/>
     </g>
    </g>
   </g>
  </g>
 </g>
 <defs>
  <clipPath id="p89bad3314f">
   <rect height="266.112" width="266.112" x="103.104" y="41.472"/>
  </clipPath>
 </defs>
</svg>
