<?xml version="1.0" encoding="utf-8" standalone="no"?>
<!DOCTYPE svg PUBLIC "-//W3C//DTD SVG 1.1//EN"
  "http://www.w3.org/Graphics/SVG/1.1/DTD/svg11.dtd">
<!-- Created with matplotlib (https://matplotlib.org/) -->
<svg height="345.6pt" version="1.1" viewBox="0 0 460.8 345.6" width="460.8pt" xmlns="http://www.w3.org/2000/svg" xmlns:xlink="http://www.w3.org/1999/xlink">
 <defs>
  <style type="text/css">
*{stroke-linecap:butt;stroke-linejoin:round;}
  </style>
 </defs>
 <g id="figure_1">
  <g id="patch_1">
   <path d="M 0 345.6 
L 460.8 345.6 
L 460.8 0 
L 0 0 
z
" style="fill:#ffffff;"/>
  </g>
  <g id="axes_1">
   <g id="patch_2">
    <path d="M 103.104 307.584 
L 369.216 307.584 
L 369.216 41.472 
L 103.104 41.472 
z
" style="fill:#ffffff;"/>
   </g>
   <g id="patch_3">
    <path clip-path="url(#pf1c423145e)" d="M 236.16 241.056 
C 253.803432 241.056 270.72661 234.04619 283.2024 221.5704 
C 295.67819 209.09461 302.688 192.171432 302.688 174.528 
C 302.688 156.884568 295.67819 139.96139 283.2024 127.4856 
C 270.72661 115.00981 253.803432 108 236.16 108 
C 218.516568 108 201.59339 115.00981 189.1176 127.4856 
C 176.64181 139.96139 169.632 156.884568 169.632 174.528 
C 169.632 192.171432 176.64181 209.09461 189.1176 221.5704 
C 201.59339 234.04619 218.516568 241.056 236.16 241.056 
z
" style="fill:#ffffff;stroke:#000000;stroke-linejoin:miter;stroke-width:0.5;"/>
   </g>
   <g id="matplotlib.axis_1">
    <g id="xtick_1">
     <g id="line2d_1">
      <defs>
       <path d="M 0 0 
L 0 3.5 
" id="m031e61271c" style="stroke:#000000;stroke-width:0.8;"/>
      </defs>
      <g>
       <use style="stroke:#000000;stroke-width:0.8;" x="103.104" xlink:href="#m031e61271c" y="307.584"/>
      </g>
     </g>
     <g id="text_1">
      <!-- 0.0 -->
      <defs>
       <path d="M 31.78125 66.40625 
Q 24.171875 66.40625 20.328125 58.90625 
Q 16.5 51.421875 16.5 36.375 
Q 16.5 21.390625 20.328125 13.890625 
Q 24.171875 6.390625 31.78125 6.390625 
Q 39.453125 6.390625 43.28125 13.890625 
Q 47.125 21.390625 47.125 36.375 
Q 47.125 51.421875 43.28125 58.90625 
Q 39.453125 66.40625 31.78125 66.40625 
z
M 31.78125 74.21875 
Q 44.046875 74.21875 50.515625 64.515625 
Q 56.984375 54.828125 56.984375 36.375 
Q 56.984375 17.96875 50.515625 8.265625 
Q 44.046875 -1.421875 31.78125 -1.421875 
Q 19.53125 -1.421875 13.0625 8.265625 
Q 6.59375 17.96875 6.59375 36.375 
Q 6.59375 54.828125 13.0625 64.515625 
Q 19.53125 74.21875 31.78125 74.21875 
z
" id="DejaVuSans-48"/>
       <path d="M 10.6875 12.40625 
L 21 12.40625 
L 21 0 
L 10.6875 0 
z
" id="DejaVuSans-46"/>
      </defs>
      <g transform="translate(95.152438 322.182437)scale(0.1 -0.1)">
       <use xlink:href="#DejaVuSans-48"/>
       <use x="63.623047" xlink:href="#DejaVuSans-46"/>
       <use x="95.410156" xlink:href="#DejaVuSans-48"/>
      </g>
     </g>
    </g>
    <g id="xtick_2">
     <g id="line2d_2">
      <g>
       <use style="stroke:#000000;stroke-width:0.8;" x="156.3264" xlink:href="#m031e61271c" y="307.584"/>
      </g>
     </g>
     <g id="text_2">
      <!-- 0.2 -->
      <defs>
       <path d="M 19.1875 8.296875 
L 53.609375 8.296875 
L 53.609375 0 
L 7.328125 0 
L 7.328125 8.296875 
Q 12.9375 14.109375 22.625 23.890625 
Q 32.328125 33.6875 34.8125 36.53125 
Q 39.546875 41.84375 41.421875 45.53125 
Q 43.3125 49.21875 43.3125 52.78125 
Q 43.3125 58.59375 39.234375 62.25 
Q 35.15625 65.921875 28.609375 65.921875 
Q 23.96875 65.921875 18.8125 64.3125 
Q 13.671875 62.703125 7.8125 59.421875 
L 7.8125 69.390625 
Q 13.765625 71.78125 18.9375 73 
Q 24.125 74.21875 28.421875 74.21875 
Q 39.75 74.21875 46.484375 68.546875 
Q 53.21875 62.890625 53.21875 53.421875 
Q 53.21875 48.921875 51.53125 44.890625 
Q 49.859375 40.875 45.40625 35.40625 
Q 44.1875 33.984375 37.640625 27.21875 
Q 31.109375 20.453125 19.1875 8.296875 
z
" id="DejaVuSans-50"/>
      </defs>
      <g transform="translate(148.374838 322.182437)scale(0.1 -0.1)">
       <use xlink:href="#DejaVuSans-48"/>
       <use x="63.623047" xlink:href="#DejaVuSans-46"/>
       <use x="95.410156" xlink:href="#DejaVuSans-50"/>
      </g>
     </g>
    </g>
    <g id="xtick_3">
     <g id="line2d_3">
      <g>
       <use style="stroke:#000000;stroke-width:0.8;" x="209.5488" xlink:href="#m031e61271c" y="307.584"/>
      </g>
     </g>
     <g id="text_3">
      <!-- 0.4 -->
      <defs>
       <path d="M 37.796875 64.3125 
L 12.890625 25.390625 
L 37.796875 25.390625 
z
M 35.203125 72.90625 
L 47.609375 72.90625 
L 47.609375 25.390625 
L 58.015625 25.390625 
L 58.015625 17.1875 
L 47.609375 17.1875 
L 47.609375 0 
L 37.796875 0 
L 37.796875 17.1875 
L 4.890625 17.1875 
L 4.890625 26.703125 
z
" id="DejaVuSans-52"/>
      </defs>
      <g transform="translate(201.597238 322.182437)scale(0.1 -0.1)">
       <use xlink:href="#DejaVuSans-48"/>
       <use x="63.623047" xlink:href="#DejaVuSans-46"/>
       <use x="95.410156" xlink:href="#DejaVuSans-52"/>
      </g>
     </g>
    </g>
    <g id="xtick_4">
     <g id="line2d_4">
      <g>
       <use style="stroke:#000000;stroke-width:0.8;" x="262.7712" xlink:href="#m031e61271c" y="307.584"/>
      </g>
     </g>
     <g id="text_4">
      <!-- 0.6 -->
      <defs>
       <path d="M 33.015625 40.375 
Q 26.375 40.375 22.484375 35.828125 
Q 18.609375 31.296875 18.609375 23.390625 
Q 18.609375 15.53125 22.484375 10.953125 
Q 26.375 6.390625 33.015625 6.390625 
Q 39.65625 6.390625 43.53125 10.953125 
Q 47.40625 15.53125 47.40625 23.390625 
Q 47.40625 31.296875 43.53125 35.828125 
Q 39.65625 40.375 33.015625 40.375 
z
M 52.59375 71.296875 
L 52.59375 62.3125 
Q 48.875 64.0625 45.09375 64.984375 
Q 41.3125 65.921875 37.59375 65.921875 
Q 27.828125 65.921875 22.671875 59.328125 
Q 17.53125 52.734375 16.796875 39.40625 
Q 19.671875 43.65625 24.015625 45.921875 
Q 28.375 48.1875 33.59375 48.1875 
Q 44.578125 48.1875 50.953125 41.515625 
Q 57.328125 34.859375 57.328125 23.390625 
Q 57.328125 12.15625 50.6875 5.359375 
Q 44.046875 -1.421875 33.015625 -1.421875 
Q 20.359375 -1.421875 13.671875 8.265625 
Q 6.984375 17.96875 6.984375 36.375 
Q 6.984375 53.65625 15.1875 63.9375 
Q 23.390625 74.21875 37.203125 74.21875 
Q 40.921875 74.21875 44.703125 73.484375 
Q 48.484375 72.75 52.59375 71.296875 
z
" id="DejaVuSans-54"/>
      </defs>
      <g transform="translate(254.819638 322.182437)scale(0.1 -0.1)">
       <use xlink:href="#DejaVuSans-48"/>
       <use x="63.623047" xlink:href="#DejaVuSans-46"/>
       <use x="95.410156" xlink:href="#DejaVuSans-54"/>
      </g>
     </g>
    </g>
    <g id="xtick_5">
     <g id="line2d_5">
      <g>
       <use style="stroke:#000000;stroke-width:0.8;" x="315.9936" xlink:href="#m031e61271c" y="307.584"/>
      </g>
     </g>
     <g id="text_5">
      <!-- 0.8 -->
      <defs>
       <path d="M 31.78125 34.625 
Q 24.75 34.625 20.71875 30.859375 
Q 16.703125 27.09375 16.703125 20.515625 
Q 16.703125 13.921875 20.71875 10.15625 
Q 24.75 6.390625 31.78125 6.390625 
Q 38.8125 6.390625 42.859375 10.171875 
Q 46.921875 13.96875 46.921875 20.515625 
Q 46.921875 27.09375 42.890625 30.859375 
Q 38.875 34.625 31.78125 34.625 
z
M 21.921875 38.8125 
Q 15.578125 40.375 12.03125 44.71875 
Q 8.5 49.078125 8.5 55.328125 
Q 8.5 64.0625 14.71875 69.140625 
Q 20.953125 74.21875 31.78125 74.21875 
Q 42.671875 74.21875 48.875 69.140625 
Q 55.078125 64.0625 55.078125 55.328125 
Q 55.078125 49.078125 51.53125 44.71875 
Q 48 40.375 41.703125 38.8125 
Q 48.828125 37.15625 52.796875 32.3125 
Q 56.78125 27.484375 56.78125 20.515625 
Q 56.78125 9.90625 50.3125 4.234375 
Q 43.84375 -1.421875 31.78125 -1.421875 
Q 19.734375 -1.421875 13.25 4.234375 
Q 6.78125 9.90625 6.78125 20.515625 
Q 6.78125 27.484375 10.78125 32.3125 
Q 14.796875 37.15625 21.921875 38.8125 
z
M 18.3125 54.390625 
Q 18.3125 48.734375 21.84375 45.5625 
Q 25.390625 42.390625 31.78125 42.390625 
Q 38.140625 42.390625 41.71875 45.5625 
Q 45.3125 48.734375 45.3125 54.390625 
Q 45.3125 60.0625 41.71875 63.234375 
Q 38.140625 66.40625 31.78125 66.40625 
Q 25.390625 66.40625 21.84375 63.234375 
Q 18.3125 60.0625 18.3125 54.390625 
z
" id="DejaVuSans-56"/>
      </defs>
      <g transform="translate(308.042037 322.182437)scale(0.1 -0.1)">
       <use xlink:href="#DejaVuSans-48"/>
       <use x="63.623047" xlink:href="#DejaVuSans-46"/>
       <use x="95.410156" xlink:href="#DejaVuSans-56"/>
      </g>
     </g>
    </g>
    <g id="xtick_6">
     <g id="line2d_6">
      <g>
       <use style="stroke:#000000;stroke-width:0.8;" x="369.216" xlink:href="#m031e61271c" y="307.584"/>
      </g>
     </g>
     <g id="text_6">
      <!-- 1.0 -->
      <defs>
       <path d="M 12.40625 8.296875 
L 28.515625 8.296875 
L 28.515625 63.921875 
L 10.984375 60.40625 
L 10.984375 69.390625 
L 28.421875 72.90625 
L 38.28125 72.90625 
L 38.28125 8.296875 
L 54.390625 8.296875 
L 54.390625 0 
L 12.40625 0 
z
" id="DejaVuSans-49"/>
      </defs>
      <g transform="translate(361.264437 322.182437)scale(0.1 -0.1)">
       <use xlink:href="#DejaVuSans-49"/>
       <use x="63.623047" xlink:href="#DejaVuSans-46"/>
       <use x="95.410156" xlink:href="#DejaVuSans-48"/>
      </g>
     </g>
    </g>
   </g>
   <g id="matplotlib.axis_2">
    <g id="ytick_1">
     <g id="line2d_7">
      <defs>
       <path d="M 0 0 
L -3.5 0 
" id="mdb861efa29" style="stroke:#000000;stroke-width:0.8;"/>
      </defs>
      <g>
       <use style="stroke:#000000;stroke-width:0.8;" x="103.104" xlink:href="#mdb861efa29" y="307.584"/>
      </g>
     </g>
     <g id="text_7">
      <!-- 0.0 -->
      <g transform="translate(80.200875 311.383219)scale(0.1 -0.1)">
       <use xlink:href="#DejaVuSans-48"/>
       <use x="63.623047" xlink:href="#DejaVuSans-46"/>
       <use x="95.410156" xlink:href="#DejaVuSans-48"/>
      </g>
     </g>
    </g>
    <g id="ytick_2">
     <g id="line2d_8">
      <g>
       <use style="stroke:#000000;stroke-width:0.8;" x="103.104" xlink:href="#mdb861efa29" y="254.3616"/>
      </g>
     </g>
     <g id="text_8">
      <!-- 0.2 -->
      <g transform="translate(80.200875 258.160819)scale(0.1 -0.1)">
       <use xlink:href="#DejaVuSans-48"/>
       <use x="63.623047" xlink:href="#DejaVuSans-46"/>
       <use x="95.410156" xlink:href="#DejaVuSans-50"/>
      </g>
     </g>
    </g>
    <g id="ytick_3">
     <g id="line2d_9">
      <g>
       <use style="stroke:#000000;stroke-width:0.8;" x="103.104" xlink:href="#mdb861efa29" y="201.1392"/>
      </g>
     </g>
     <g id="text_9">
      <!-- 0.4 -->
      <g transform="translate(80.200875 204.938419)scale(0.1 -0.1)">
       <use xlink:href="#DejaVuSans-48"/>
       <use x="63.623047" xlink:href="#DejaVuSans-46"/>
       <use x="95.410156" xlink:href="#DejaVuSans-52"/>
      </g>
     </g>
    </g>
    <g id="ytick_4">
     <g id="line2d_10">
      <g>
       <use style="stroke:#000000;stroke-width:0.8;" x="103.104" xlink:href="#mdb861efa29" y="147.9168"/>
      </g>
     </g>
     <g id="text_10">
      <!-- 0.6 -->
      <g transform="translate(80.200875 151.716019)scale(0.1 -0.1)">
       <use xlink:href="#DejaVuSans-48"/>
       <use x="63.623047" xlink:href="#DejaVuSans-46"/>
       <use x="95.410156" xlink:href="#DejaVuSans-54"/>
      </g>
     </g>
    </g>
    <g id="ytick_5">
     <g id="line2d_11">
      <g>
       <use style="stroke:#000000;stroke-width:0.8;" x="103.104" xlink:href="#mdb861efa29" y="94.6944"/>
      </g>
     </g>
     <g id="text_11">
      <!-- 0.8 -->
      <g transform="translate(80.200875 98.493619)scale(0.1 -0.1)">
       <use xlink:href="#DejaVuSans-48"/>
       <use x="63.623047" xlink:href="#DejaVuSans-46"/>
       <use x="95.410156" xlink:href="#DejaVuSans-56"/>
      </g>
     </g>
    </g>
    <g id="ytick_6">
     <g id="line2d_12">
      <g>
       <use style="stroke:#000000;stroke-width:0.8;" x="103.104" xlink:href="#mdb861efa29" y="41.472"/>
      </g>
     </g>
     <g id="text_12">
      <!-- 1.0 -->
      <g transform="translate(80.200875 45.271219)scale(0.1 -0.1)">
       <use xlink:href="#DejaVuSans-49"/>
       <use x="63.623047" xlink:href="#DejaVuSans-46"/>
       <use x="95.410156" xlink:href="#DejaVuSans-48"/>
      </g>
     </g>
    </g>
   </g>
   <g id="LineCollection_1"/>
   <g id="LineCollection_2">
    <path clip-path="url(#pf1c423145e)" d="M 171.09751 160.742187 
L 170.723325 161.111208 
L 169.866224 162.065111 
L 169.269954 163.480263 
L 169.426156 164.220325 
L 170.321429 165.099 
" style="fill:none;stroke:#000000;stroke-width:0.4;"/>
    <path clip-path="url(#pf1c423145e)" d="M 262.311207 252.15497 
L 258.536606 253.339615 
L 253.957117 255.579813 
L 252.993837 255.77671 
L 252.183702 256.152246 
L 248.146215 257.212239 
L 244.1375 257.770363 
L 240.530355 257.897114 
L 233.663885 257.777206 
L 231.394296 257.492837 
L 227.463928 256.755467 
L 226.584477 256.651301 
L 220.477152 256.421146 
L 215.656755 255.651597 
L 213.631835 254.856188 
L 210.872205 253.370602 
L 208.820148 252.737958 
L 203.032617 252.143632 
L 200.984222 251.040584 
L 198.019155 249.270875 
L 195.532015 248.064484 
L 185.472325 243.847967 
L 184.664687 243.09811 
L 183.064898 241.820351 
L 171.878908 231.847501 
L 170.615271 230.292079 
L 169.285897 228.031224 
L 168.162586 223.092594 
L 168.114268 222.727038 
L 165.177763 216.874494 
L 163.200555 212.957947 
L 159.526183 207.762699 
L 157.759332 202.433141 
L 157.129591 200.439092 
L 157.036491 196.28438 
L 157.239459 194.821757 
L 157.292483 193.437917 
L 156.762405 191.428092 
L 153.784865 183.073342 
L 153.545704 176.144048 
L 153.617425 167.906146 
L 153.788338 164.640876 
L 154.397199 158.88257 
L 158.144751 150.577421 
L 159.076302 148.534898 
L 159.831818 146.139559 
L 160.05882 143.37928 
L 160.198368 140.444762 
L 160.920908 138.245297 
L 163.516723 133.624059 
L 165.682223 126.078444 
L 167.295793 122.952693 
L 170.090835 119.141674 
L 176.167525 111.72125 
L 178.432073 109.234103 
L 179.52718 107.818517 
L 180.753946 106.477531 
L 183.015167 105.302793 
L 193.100702 101.45076 
L 199.67727 99.075493 
L 201.848673 98.81935 
L 210.174329 97.08945 
L 215.188798 94.968206 
L 219.194161 93.148567 
L 221.527697 91.967597 
L 223.772988 91.543806 
L 233.713043 90.917246 
L 240.778238 91.078066 
L 247.518985 91.572137 
L 248.031678 91.739591 
L 249.888514 92.127614 
L 257.265733 95.242122 
L 261.891003 97.062533 
L 263.543738 96.89325 
L 273.293477 100.450974 
L 284.31869 103.879029 
L 284.450257 103.974539 
L 287.823904 105.586538 
L 292.96305 109.604273 
L 295.861753 111.948456 
L 301.680561 116.362973 
L 303.630386 118.138711 
L 304.894119 119.702566 
L 305.159538 120.161174 
L 307.816562 126.689114 
L 309.934375 131.377394 
L 312.054542 136.048333 
L 313.854184 140.858097 
L 314.106131 142.198983 
L 314.10961 145.83158 
L 313.581483 150.010301 
L 313.725312 152.417157 
L 314.121258 154.215207 
L 314.806223 155.971666 
L 317.779694 161.713167 
L 318.528693 163.420989 
L 318.099999 169.171792 
L 318.130806 171.728885 
L 319.404028 181.44706 
L 319.337146 182.858989 
L 319.160586 183.882931 
L 319.169601 184.510021 
L 318.71441 187.642736 
L 318.525489 188.22235 
L 316.23425 193.548306 
L 313.489869 200.365393 
L 313.430397 202.7287 
L 314.2216 205.774027 
L 314.348836 206.942877 
L 313.558847 209.068628 
L 312.948037 209.862197 
L 312.765879 210.673122 
L 311.922516 213.054791 
L 310.33683 216.877555 
L 309.51306 218.404992 
L 309.146647 219.716425 
L 308.241046 220.560659 
L 307.488531 222.9237 
L 306.355826 224.742466 
L 304.842847 226.616219 
L 302.714996 229.19702 
L 293.706201 238.267138 
L 286.157893 245.165976 
L 285.287344 245.526512 
L 284.308088 246.058369 
L 282.83241 246.6253 
L 282.83241 246.6253 
" style="fill:none;stroke:#000000;stroke-width:0.4;"/>
   </g>
   <g id="LineCollection_3">
    <path clip-path="url(#pf1c423145e)" d="M 142.448385 175.237192 
L 142.524739 171.044645 
L 143.693358 161.964564 
L 144.024922 159.456484 
L 144.078653 155.725614 
L 144.090217 153.247683 
L 144.37029 151.140123 
L 145.310066 146.42086 
L 147.643455 138.829916 
L 149.789479 133.251962 
L 151.558908 127.812504 
L 153.619931 122.753267 
L 154.589799 120.670135 
L 156.149318 118.317779 
L 164.989291 106.245158 
L 166.149623 104.924792 
L 167.271832 103.837871 
L 170.664406 101.276578 
L 178.572973 95.545672 
L 187.907553 90.811822 
L 195.06276 87.556248 
L 208.070403 83.434866 
L 214.706367 82.191389 
L 226.6087 81.050682 
L 235.020515 80.308429 
L 236.825747 80.221968 
L 241.861231 80.562666 
L 261.29355 82.666143 
L 263.502059 83.190452 
L 271.083237 85.370837 
L 275.283774 86.336385 
L 276.692946 86.738059 
L 284.395113 90.206548 
L 291.640673 93.639378 
L 292.931647 94.399296 
L 298.924796 99.288139 
L 307.740588 106.705585 
L 313.739932 114.021795 
L 315.291507 116.60532 
L 316.854308 119.73856 
L 324.37043 136.079205 
L 325.917648 140.942674 
L 327.003589 145.091125 
L 327.708866 147.95809 
L 328.568929 152.816179 
L 328.974002 156.083992 
L 328.961853 163.411517 
L 329.955427 171.630616 
L 329.992611 172.973655 
L 330.17919 174.572172 
L 329.619081 181.388697 
L 328.798654 188.225236 
L 328.645895 194.741585 
L 327.914335 200.070636 
L 326.911023 204.250571 
L 325.345266 208.45581 
L 323.023098 214.141617 
L 319.150074 226.091789 
L 318.112463 227.99782 
L 311.214254 237.418282 
L 307.348601 242.660557 
L 305.156375 244.945294 
L 304.66375 245.265288 
L 303.159585 246.635875 
L 291.868682 254.822887 
L 290.023486 255.787108 
L 280.706409 260.19705 
L 277.832056 261.472672 
L 274.745355 262.643321 
L 268.124345 264.624104 
L 255.722991 267.091808 
L 253.733106 267.375259 
L 237.804574 269.077599 
L 235.251893 269.107485 
L 227.09585 268.201057 
L 221.515952 267.694994 
L 217.085548 267.427826 
L 212.091582 266.680751 
L 205.142908 264.884367 
L 203.720611 264.48325 
L 196.390501 262.046186 
L 190.637522 259.59343 
L 181.501413 255.207315 
L 178.329581 253.108607 
L 168.218058 245.910711 
L 167.027563 244.865491 
L 164.733465 242.421243 
L 160.210692 236.430983 
L 157.341932 232.372497 
L 153.270614 225.257613 
L 148.472867 214.989614 
L 145.564958 205.971181 
L 144.884923 203.21314 
L 144.884923 203.21314 
" style="fill:none;stroke:#000000;stroke-width:0.4;"/>
   </g>
   <g id="LineCollection_4">
    <path clip-path="url(#pf1c423145e)" d="M 255.779123 275.693383 
L 251.981714 276.369475 
L 246.522004 276.64851 
L 228.694241 276.944168 
L 223.630824 276.832194 
L 220.245485 276.590943 
L 215.336941 275.966574 
L 207.977262 274.953903 
L 192.882386 271.168997 
L 192.244836 270.990333 
L 188.599409 269.54228 
L 174.316845 262.945415 
L 172.015411 261.628798 
L 162.838694 254.948432 
L 159.945049 252.546075 
L 157.958917 250.23621 
L 152.29211 242.750163 
L 148.39605 237.32577 
L 147.54515 235.724127 
L 139.844064 219.737598 
L 139.152217 217.726119 
L 136.413431 206.100414 
L 135.570069 202.221801 
L 135.482002 201.543768 
L 134.373494 187.064191 
L 133.806377 178.75428 
L 134.219917 167.514534 
L 134.236571 157.101235 
L 134.460576 154.539872 
L 135.339347 150.314976 
L 137.229329 141.187467 
L 139.292234 131.379483 
L 139.969709 129.127628 
L 141.396748 125.885529 
L 144.973213 118.077145 
L 148.565916 111.609596 
L 151.24881 107.696269 
L 157.499444 99.180847 
L 159.026303 97.583462 
L 162.815994 94.602119 
L 167.034697 91.392208 
L 173.373079 86.888855 
L 175.302081 85.81509 
L 190.105403 78.756613 
L 192.311628 77.980178 
L 198.004344 76.771948 
L 210.848133 74.143176 
L 214.204614 73.812993 
L 224.837966 72.873561 
L 232.845159 72.171069 
L 241.397 72.024917 
L 253.585981 72.836259 
L 260.66086 73.60483 
L 261.726204 73.80677 
L 264.670913 74.547626 
L 281.690538 78.446832 
L 292.553563 83.463239 
L 298.055339 86.065861 
L 300.358728 87.55314 
L 307.042594 92.743276 
L 311.423888 96.035887 
L 312.391981 96.885647 
L 316.751959 102.156472 
L 323.374515 110.343312 
L 324.416977 111.913746 
L 332.004394 127.766032 
L 332.302589 128.524243 
L 332.870734 130.013747 
L 333.723434 133.818546 
L 335.610723 143.759401 
L 337.487331 154.179679 
L 338.107356 158.732286 
L 338.43858 162.426357 
L 338.457135 166.513969 
L 338.374827 176.053678 
L 338.345173 186.109694 
L 337.968413 191.368449 
L 337.245304 196.82523 
L 335.952607 205.294098 
L 333.116622 217.011781 
L 331.841235 220.98007 
L 326.337634 233.109448 
L 325.468667 234.998837 
L 324.383493 236.936195 
L 315.703552 248.895737 
L 312.813679 251.819865 
L 310.199461 254.077929 
L 298.754997 262.373779 
L 298.180066 262.716613 
L 282.177533 270.079433 
L 280.075177 270.84913 
L 276.568819 271.589488 
L 276.568819 271.589488 
" style="fill:none;stroke:#000000;stroke-width:0.4;"/>
   </g>
   <g id="LineCollection_5">
    <path clip-path="url(#pf1c423145e)" d="M 285.764648 70.342554 
L 286.853461 70.55132 
L 289.147166 71.4378 
L 302.311168 77.465135 
L 305.129531 78.66082 
L 315.963669 86.65699 
L 317.426713 87.774522 
L 318.815244 89.093888 
L 320.964001 91.590997 
L 324.382623 95.78016 
L 329.569735 101.88909 
L 332.184983 105.665675 
L 333.06221 107.196418 
L 334.785865 112.133183 
L 336.669068 116.436974 
L 340.342358 124.578784 
L 341.40821 129.555696 
L 342.556303 135.664376 
L 345.441269 152.529514 
L 345.932761 161.290707 
L 346.21617 169.75588 
L 346.295723 176.326351 
L 346.196727 182.864181 
L 345.785956 191.247907 
L 345.230924 196.01913 
L 344.535735 201.509505 
L 344.042922 206.828893 
L 343.337668 210.258768 
L 341.142807 219.723937 
L 339.717974 226.224184 
L 338.975147 228.250376 
L 335.371209 236.063781 
L 332.414267 242.338776 
L 330.158801 246.430246 
L 329.771018 247.106672 
L 325.853282 252.572923 
L 325.41259 253.096052 
L 316.129514 262.30092 
L 313.234816 264.523927 
L 304.94731 270.513958 
L 301.972891 271.647731 
L 298.532584 272.949301 
L 295.159322 274.416326 
L 286.873779 278.072669 
L 276.516013 280.203241 
L 265.455328 282.435907 
L 260.38221 283.239699 
L 250.894234 284.161051 
L 245.762926 284.402286 
L 233.298603 284.624966 
L 224.214951 284.465951 
L 220.390435 284.241242 
L 201.973006 282.107183 
L 193.280351 279.927386 
L 186.032942 278.639256 
L 171.234355 272.415536 
L 168.021147 271.109573 
L 167.19121 270.688182 
L 160.601743 265.730412 
L 153.542155 260.368469 
L 149.795962 255.84435 
L 141.685619 245.722978 
L 140.563513 243.926316 
L 139.431131 242.223464 
L 138.864605 241.158838 
L 135.038339 231.674853 
L 132.697924 226.690042 
L 132.055696 224.468256 
L 129.834681 213.968845 
L 127.971723 205.491404 
L 127.497387 202.150746 
L 126.342336 186.306739 
L 126.120227 181.420276 
L 125.94268 169.260331 
L 126.174667 162.843667 
L 127.340165 149.77007 
L 128.118091 145.198185 
L 132.424016 123.160811 
L 133.584202 120.176891 
L 136.410184 114.051582 
L 139.82349 107.143476 
L 142.178606 102.656375 
L 148.997064 93.735949 
L 150.459615 92.09592 
L 153.680142 89.44937 
L 167.799441 78.316761 
L 169.573712 77.213596 
L 173.057948 75.793796 
L 181.41838 72.533025 
L 184.107449 71.310658 
L 186.028939 70.573806 
L 188.823726 69.75279 
L 210.193678 65.953922 
L 228.883664 64.171287 
L 232.68667 64.114642 
L 245.804314 64.491465 
L 256.535788 65.149222 
L 264.213591 65.777333 
L 265.010801 65.939193 
L 265.010801 65.939193 
" style="fill:none;stroke:#000000;stroke-width:0.4;"/>
   </g>
   <g id="LineCollection_6">
    <path clip-path="url(#pf1c423145e)" d="M 268.513842 58.630327 
L 271.75349 58.923797 
L 274.584019 59.501975 
L 294.031362 63.301103 
L 302.139587 66.628526 
L 311.134745 70.047602 
L 316.713836 73.936889 
L 318.238695 74.765101 
L 320.953878 76.525007 
L 327.312804 81.813578 
L 328.52166 83.142796 
L 335.322005 91.879964 
L 337.831356 96.239827 
L 341.743993 102.636664 
L 342.640225 104.705839 
L 343.92893 108.954115 
L 347.105823 118.13736 
L 347.934765 120.088041 
L 349.416904 127.051477 
L 350.734882 133.851467 
L 351.471843 138.433262 
L 352.785593 151.225418 
L 353.310855 160.789 
L 353.443712 165.198533 
L 353.617371 181.392479 
L 353.062761 195.612938 
L 351.553972 211.279963 
L 350.765555 214.854296 
L 346.704085 233.908831 
L 343.990754 240.366641 
L 341.52228 245.080278 
L 339.740366 248.613717 
L 335.483026 257.170649 
L 334.023188 258.894216 
L 324.081326 269.78346 
L 321.704195 271.541554 
L 312.643375 277.766507 
L 311.579533 278.547601 
L 308.668683 279.829208 
L 295.291551 284.521074 
L 292.625683 285.549714 
L 292.121196 285.685488 
L 269.740536 290.07687 
L 261.222144 290.763953 
L 245.968184 291.904788 
L 240.030982 292.004667 
L 220.86688 291.812374 
L 214.023098 291.197336 
L 198.222558 289.470809 
L 180.626152 286.386757 
L 175.144996 284.18337 
L 164.086271 280.185247 
L 162.177531 279.471674 
L 158.73241 277.440261 
L 156.137822 275.730004 
L 149.535039 270.827467 
L 144.033537 266.062986 
L 130.207186 246.917101 
L 129.304904 244.863978 
L 127.716154 240.381064 
L 124.864052 232.480391 
L 123.421611 224.508135 
L 120.622569 210.0034 
L 120.053001 204.723049 
L 118.795007 188.00315 
L 118.739384 181.692349 
L 118.776073 165.184798 
L 120.158579 146.191784 
L 121.008256 138.250921 
L 123.873564 121.670774 
L 124.521735 118.518105 
L 125.529558 115.472836 
L 127.491749 109.598389 
L 128.781077 106.215157 
L 130.445806 102.858695 
L 134.811123 94.855189 
L 143.788643 83.023521 
L 144.136923 82.705293 
L 154.469299 75.180286 
L 164.603478 68.171817 
L 164.849238 68.107392 
L 169.259432 66.733977 
L 182.416047 62.483479 
L 183.915085 61.966404 
L 187.724446 61.169005 
L 198.503792 59.262925 
L 202.849048 58.728213 
L 205.036074 58.6194 
L 226.078243 56.935203 
L 232.968576 56.945916 
L 247.533415 57.096735 
L 247.533415 57.096735 
" style="fill:none;stroke:#000000;stroke-width:0.4;"/>
   </g>
   <g id="LineCollection_7">
    <path clip-path="url(#pf1c423145e)" d="M 219.314743 298.868835 
L 214.497861 298.800177 
L 207.33777 298.260479 
L 199.038426 297.430148 
L 192.505657 297.188169 
L 182.804476 295.694297 
L 180.024875 295.528276 
L 175.865873 295.507084 
L 171.253631 294.420698 
L 169.206205 293.865424 
L 162.513788 291.353358 
L 160.381045 290.732374 
L 155.936959 288.733694 
L 152.129448 287.022593 
L 146.166224 283.996159 
L 144.364655 282.717225 
L 138.068212 277.217034 
L 136.82237 276.021382 
L 133.558467 272.364195 
L 131.941223 270.391335 
L 130.610034 268.357965 
L 121.475896 254.073138 
L 120.749729 252.365919 
L 119.62586 249.122823 
L 116.3728 238.961988 
L 116.230126 237.354108 
L 114.894625 224.568504 
L 112.964402 215.041717 
L 112.786569 211.322761 
L 112.604491 205.659652 
L 111.790431 191.604518 
L 111.8975 162.623223 
L 112.302232 156.342123 
L 112.480903 149.519199 
L 112.718777 144.979052 
L 112.636043 140.144335 
L 112.653916 138.748097 
L 113.277112 136.282047 
L 113.902514 132.135957 
L 114.11863 129.745537 
L 114.141531 127.87102 
L 113.844582 125.650299 
L 115.709125 115.953846 
L 116.549109 112.685673 
L 117.349619 108.142347 
L 117.678601 105.708651 
L 119.155156 102.193445 
L 119.173247 101.8543 
L 119.940447 98.960724 
L 120.616459 97.20869 
L 121.355892 95.488231 
L 122.212641 93.716686 
L 124.610372 87.656115 
L 125.261241 86.282027 
L 126.08987 84.889982 
L 129.235515 81.293265 
L 129.536407 80.621427 
L 130.871657 78.660783 
L 131.86535 77.111973 
L 138.011417 71.017231 
L 141.750976 68.562155 
L 145.020043 66.544648 
L 151.26816 62.494304 
L 155.29076 59.622508 
L 157.581007 58.520761 
L 163.715166 56.324346 
L 165.36034 55.880408 
L 176.49656 53.501981 
L 178.948933 53.152671 
L 185.599365 52.941135 
L 188.159605 52.659573 
L 195.363754 51.632425 
L 199.97963 51.037117 
L 208.379981 50.945654 
L 219.411875 50.06008 
L 251.963555 50.154038 
L 256.082045 50.374202 
L 267.426621 51.184959 
L 275.618297 51.182981 
L 279.047141 51.802437 
L 289.848441 53.831497 
L 294.201876 54.000776 
L 298.255795 54.06006 
L 300.889607 54.287549 
L 301.9658 54.497163 
L 303.513878 55.006281 
L 319.434971 61.471046 
L 321.784244 62.616464 
L 324.554491 64.457141 
L 330.952723 69.157388 
L 333.389489 70.799049 
L 335.827662 72.110578 
L 336.563581 72.540532 
L 338.340593 73.829231 
L 339.764309 75.993827 
L 342.763775 80.792562 
L 347.329847 87.323545 
L 348.372248 89.030453 
L 348.613838 89.695367 
L 349.556625 91.809565 
L 352.664858 100.38568 
L 353.84039 104.644197 
L 354.308982 106.101226 
L 355.384826 111.283186 
L 356.673144 115.848685 
L 357.894366 121.56836 
L 358.294546 123.999709 
L 358.883022 133.518768 
L 358.936696 139.457874 
L 360.030068 149.213761 
L 360.232176 153.465593 
L 360.387065 158.557725 
L 360.623336 177.266731 
L 360.502818 186.07419 
L 360.323587 196.783956 
L 360.278604 199.393211 
L 359.560676 207.288339 
L 359.375633 216.137499 
L 357.946172 223.005437 
L 356.322882 231.01331 
L 356.190821 232.59957 
L 356.191471 234.316125 
L 355.927694 237.467322 
L 352.623699 247.908887 
L 349.789071 254.38145 
L 347.72853 259.945038 
L 346.693792 262.106875 
L 344.228092 264.979197 
L 342.141263 267.699751 
L 341.134825 269.268457 
L 336.847852 276.089587 
L 335.650348 277.354533 
L 333.933523 278.352996 
L 321.710392 285.027666 
L 315.715229 288.289534 
L 314.888063 288.519077 
L 309.122445 291.198265 
L 302.537092 294.31143 
L 301.188785 294.689931 
L 298.939075 294.917708 
L 290.076515 294.926833 
L 286.49722 295.390855 
L 277.430366 297.083315 
L 274.526663 297.760447 
L 273.080125 297.978386 
L 261.958632 298.187857 
L 251.963723 298.762813 
L 240.328198 298.928417 
L 240.328198 298.928417 
" style="fill:none;stroke:#000000;stroke-width:0.4;"/>
   </g>
   <g id="LineCollection_8">
    <path clip-path="url(#pf1c423145e)" d="M 241.691487 43.208408 
L 258.301935 43.293644 
L 261.91867 43.43881 
L 279.370438 43.466335 
L 280.665421 43.545211 
L 283.355169 43.975005 
L 307.735899 43.983822 
L 308.565749 44.173601 
L 311.281177 45.041954 
L 316.535341 45.081849 
L 323.805014 45.103901 
L 326.030567 45.412749 
L 329.426542 47.608303 
L 334.662556 50.093954 
L 335.86186 50.384849 
L 336.791704 50.80302 
L 337.712762 50.908482 
L 338.587202 51.259908 
L 340.01306 51.288445 
L 340.433 51.582946 
L 342.286002 52.270085 
L 344.07663 53.412893 
L 347.087186 55.752215 
L 352.427515 59.705935 
L 353.743989 61.181364 
L 356.759055 63.215931 
L 358.775176 64.555409 
L 359.423831 66.58362 
L 359.320479 72.722645 
L 360.137464 73.690758 
L 361.618814 76.235839 
L 363.015916 78.119339 
L 364.01745 79.215498 
L 364.137838 82.342795 
L 364.165661 93.281082 
L 364.761465 95.662078 
L 365.513479 97.608941 
L 365.913821 99.136766 
L 366.035947 104.324318 
L 366.109686 113.797842 
L 366.692053 115.968972 
L 366.869713 118.095276 
L 366.957093 126.323422 
L 367.100816 129.301267 
L 367.149049 135.821594 
L 367.149049 145.71182 
L 367.40055 150.292075 
L 367.296182 205.509033 
L 367.279091 218.641138 
L 367.279053 220.260759 
L 366.970725 222.526468 
L 366.609464 225.920764 
L 366.568182 237.577046 
L 365.708193 241.590885 
L 365.588185 254.198391 
L 365.451079 255.818938 
L 365.442063 266.975745 
L 364.746731 268.722765 
L 361.16018 274.253195 
L 357.049881 280.916902 
L 356.882102 282.352318 
L 356.498802 282.711524 
L 356.494328 286.869193 
L 355.497948 288.680924 
L 352.14028 292.655145 
L 351.651316 293.306081 
L 346.793632 297.729051 
L 344.420968 297.95403 
L 339.888782 298.006505 
L 339.493259 298.185296 
L 337.876995 298.367099 
L 336.603105 298.791461 
L 331.956577 301.75529 
L 330.45032 302.926039 
L 328.40071 303.563258 
L 313.784815 303.467612 
L 310.965024 304.695245 
L 309.992143 305.039144 
L 282.582098 305.095624 
L 280.090544 305.322673 
L 278.880704 305.584701 
L 262.84065 305.695771 
L 260.61915 305.792511 
L 205.566441 305.696797 
L 202.39596 305.519858 
L 186.598404 305.440821 
L 184.153485 305.172855 
L 170.208661 305.156627 
L 167.572122 304.799171 
L 165.665791 304.382574 
L 157.082023 304.27203 
L 156.26638 304.072815 
L 154.359965 303.411937 
L 152.076936 302.287662 
L 150.76555 302.193188 
L 149.666752 301.938416 
L 142.24207 301.938416 
L 141.951942 301.826708 
L 139.956361 301.22456 
L 136.379066 298.967778 
L 135.551668 298.767645 
L 127.480778 298.767645 
L 125.539803 297.912959 
L 123.120032 294.169356 
L 121.397021 293.050872 
L 120.923686 292.970175 
L 119.181203 292.26855 
L 118.153722 291.714245 
L 117.833844 289.77568 
L 117.485123 288.541154 
L 116.262441 287.328411 
L 115.014909 286.234674 
L 111.374262 283.359025 
L 110.421699 281.897436 
L 109.908593 279.039694 
L 109.965057 269.057274 
L 109.560688 267.517691 
L 109.166397 266.623872 
L 107.797736 263.997167 
L 107.699343 263.724894 
L 107.383672 261.803804 
L 107.288174 252.721594 
L 106.446896 248.957677 
L 105.862706 246.799139 
L 105.79911 241.060187 
L 105.743684 223.731565 
L 105.612521 221.835526 
L 105.031464 216.742854 
L 104.961573 199.690914 
L 104.887147 198.010871 
L 104.841286 190.696928 
L 104.932218 151.400786 
L 105.004182 147.000428 
L 105.01981 135.694036 
L 105.33399 133.841959 
L 105.499 130.555481 
L 105.344196 125.27191 
L 105.558606 120.48832 
L 105.646118 105.671909 
L 105.784769 103.741877 
L 106.131899 101.59743 
L 106.312701 99.651822 
L 106.334839 87.477808 
L 107.215728 84.603442 
L 110.223959 78.341348 
L 111.145961 76.606218 
L 111.426543 75.074479 
L 111.767564 74.596299 
L 111.856364 69.593134 
L 112.209507 69.038364 
L 113.454706 67.508748 
L 118.66895 62.281222 
L 121.622261 59.387648 
L 121.955776 58.797511 
L 122.903875 57.799804 
L 127.047126 50.243149 
L 128.412599 48.737146 
L 130.165729 47.875504 
L 142.029412 47.826954 
L 143.292648 47.430158 
L 147.343792 45.545535 
L 149.578113 45.304064 
L 159.1251 45.299595 
L 161.453828 44.958833 
L 162.606159 44.535626 
L 165.155083 43.939445 
L 168.767508 43.764775 
L 193.610051 43.732968 
L 195.805013 43.58212 
L 198.271554 43.385023 
L 209.445395 43.382431 
L 214.533369 43.189616 
L 220.678009 43.189616 
L 220.678009 43.189616 
" style="fill:none;stroke:#000000;stroke-width:0.4;"/>
   </g>
   <g id="LineCollection_9"/>
   <g id="patch_4">
    <path d="M 103.104 307.584 
L 103.104 41.472 
" style="fill:none;stroke:#000000;stroke-linecap:square;stroke-linejoin:miter;stroke-width:0.8;"/>
   </g>
   <g id="patch_5">
    <path d="M 369.216 307.584 
L 369.216 41.472 
" style="fill:none;stroke:#000000;stroke-linecap:square;stroke-linejoin:miter;stroke-width:0.8;"/>
   </g>
   <g id="patch_6">
    <path d="M 103.104 307.584 
L 369.216 307.584 
" style="fill:none;stroke:#000000;stroke-linecap:square;stroke-linejoin:miter;stroke-width:0.8;"/>
   </g>
   <g id="patch_7">
    <path d="M 103.104 41.472 
L 369.216 41.472 
" style="fill:none;stroke:#000000;stroke-linecap:square;stroke-linejoin:miter;stroke-width:0.8;"/>
   </g>
   <g id="text_13">
    <g clip-path="url(#pf1c423145e)">
     <!-- 0.200 -->
     <g transform="translate(263.05805 252.934887)rotate(-11.355006)scale(0.07 -0.07)">
      <use xlink:href="#DejaVuSans-48"/>
      <use x="63.623047" xlink:href="#DejaVuSans-46"/>
      <use x="95.410156" xlink:href="#DejaVuSans-50"/>
      <use x="159.033203" xlink:href="#DejaVuSans-48"/>
      <use x="222.65625" xlink:href="#DejaVuSans-48"/>
     </g>
    </g>
   </g>
   <g id="text_14">
    <g clip-path="url(#pf1c423145e)">
     <!-- 0.208 -->
     <g transform="translate(140.379442 179.533516)rotate(-276.549873)scale(0.07 -0.07)">
      <use xlink:href="#DejaVuSans-48"/>
      <use x="63.623047" xlink:href="#DejaVuSans-46"/>
      <use x="95.410156" xlink:href="#DejaVuSans-50"/>
      <use x="159.033203" xlink:href="#DejaVuSans-48"/>
      <use x="222.65625" xlink:href="#DejaVuSans-56"/>
     </g>
    </g>
   </g>
   <g id="text_15">
    <g clip-path="url(#pf1c423145e)">
     <!-- 0.216 -->
     <g transform="translate(256.547976 277.060804)rotate(-8.382452)scale(0.07 -0.07)">
      <use xlink:href="#DejaVuSans-48"/>
      <use x="63.623047" xlink:href="#DejaVuSans-46"/>
      <use x="95.410156" xlink:href="#DejaVuSans-50"/>
      <use x="159.033203" xlink:href="#DejaVuSans-49"/>
      <use x="222.65625" xlink:href="#DejaVuSans-54"/>
     </g>
    </g>
   </g>
   <g id="text_16">
    <g clip-path="url(#pf1c423145e)">
     <!-- 0.224 -->
     <g transform="translate(265.171506 68.597697)rotate(-350.857685)scale(0.07 -0.07)">
      <use xlink:href="#DejaVuSans-48"/>
      <use x="63.623047" xlink:href="#DejaVuSans-46"/>
      <use x="95.410156" xlink:href="#DejaVuSans-50"/>
      <use x="159.033203" xlink:href="#DejaVuSans-50"/>
      <use x="222.65625" xlink:href="#DejaVuSans-52"/>
     </g>
    </g>
   </g>
   <g id="text_17">
    <g clip-path="url(#pf1c423145e)">
     <!-- 0.232 -->
     <defs>
      <path d="M 40.578125 39.3125 
Q 47.65625 37.796875 51.625 33 
Q 55.609375 28.21875 55.609375 21.1875 
Q 55.609375 10.40625 48.1875 4.484375 
Q 40.765625 -1.421875 27.09375 -1.421875 
Q 22.515625 -1.421875 17.65625 -0.515625 
Q 12.796875 0.390625 7.625 2.203125 
L 7.625 11.71875 
Q 11.71875 9.328125 16.59375 8.109375 
Q 21.484375 6.890625 26.8125 6.890625 
Q 36.078125 6.890625 40.9375 10.546875 
Q 45.796875 14.203125 45.796875 21.1875 
Q 45.796875 27.640625 41.28125 31.265625 
Q 36.765625 34.90625 28.71875 34.90625 
L 20.21875 34.90625 
L 20.21875 43.015625 
L 29.109375 43.015625 
Q 36.375 43.015625 40.234375 45.921875 
Q 44.09375 48.828125 44.09375 54.296875 
Q 44.09375 59.90625 40.109375 62.90625 
Q 36.140625 65.921875 28.71875 65.921875 
Q 24.65625 65.921875 20.015625 65.03125 
Q 15.375 64.15625 9.8125 62.3125 
L 9.8125 71.09375 
Q 15.4375 72.65625 20.34375 73.4375 
Q 25.25 74.21875 29.59375 74.21875 
Q 40.828125 74.21875 47.359375 69.109375 
Q 53.90625 64.015625 53.90625 55.328125 
Q 53.90625 49.265625 50.4375 45.09375 
Q 46.96875 40.921875 40.578125 39.3125 
z
" id="DejaVuSans-51"/>
     </defs>
     <g transform="translate(247.909732 59.119315)rotate(-356.615662)scale(0.07 -0.07)">
      <use xlink:href="#DejaVuSans-48"/>
      <use x="63.623047" xlink:href="#DejaVuSans-46"/>
      <use x="95.410156" xlink:href="#DejaVuSans-50"/>
      <use x="159.033203" xlink:href="#DejaVuSans-51"/>
      <use x="222.65625" xlink:href="#DejaVuSans-50"/>
     </g>
    </g>
   </g>
   <g id="text_18">
    <g clip-path="url(#pf1c423145e)">
     <!-- 0.240 -->
     <g transform="translate(219.796363 300.795832)rotate(-359.842348)scale(0.07 -0.07)">
      <use xlink:href="#DejaVuSans-48"/>
      <use x="63.623047" xlink:href="#DejaVuSans-46"/>
      <use x="95.410156" xlink:href="#DejaVuSans-50"/>
      <use x="159.033203" xlink:href="#DejaVuSans-52"/>
      <use x="222.65625" xlink:href="#DejaVuSans-48"/>
     </g>
    </g>
   </g>
   <g id="text_19">
    <g clip-path="url(#pf1c423145e)">
     <!-- 0.248 -->
     <g transform="translate(221.163617 45.114307)rotate(-359.960708)scale(0.07 -0.07)">
      <use xlink:href="#DejaVuSans-48"/>
      <use x="63.623047" xlink:href="#DejaVuSans-46"/>
      <use x="95.410156" xlink:href="#DejaVuSans-50"/>
      <use x="159.033203" xlink:href="#DejaVuSans-52"/>
      <use x="222.65625" xlink:href="#DejaVuSans-56"/>
     </g>
    </g>
   </g>
  </g>
 </g>
 <defs>
  <clipPath id="pf1c423145e">
   <rect height="266.112" width="266.112" x="103.104" y="41.472"/>
  </clipPath>
 </defs>
</svg>
